<?xml version="1.0" standalone="no"?>
<!DOCTYPE svg PUBLIC "-//W3C//DTD SVG 20010904//EN"
 "http://www.w3.org/TR/2001/REC-SVG-20010904/DTD/svg10.dtd">
<svg version="1.0" xmlns="http://www.w3.org/2000/svg"
 width="512.000000pt" height="512.000000pt" viewBox="0 0 512.000000 512.000000"
 preserveAspectRatio="xMidYMid meet">

<g transform="translate(0.000000,512.000000) scale(0.100000,-0.100000)"
fill="#000000" stroke="none">
<path d="M1323 3722 c-678 -284 -1233 -519 -1233 -522 0 -3 556 -238 1235
-523 l1236 -517 793 332 c483 203 788 335 777 339 -9 3 -374 71 -811 150 -871
157 -840 149 -840 219 0 37 39 80 72 80 19 0 1553 -278 1716 -311 l52 -10 0
-807 0 -807 -36 -29 c-50 -39 -69 -89 -93 -241 -12 -71 -23 -145 -26 -162 l-6
-33 241 0 242 0 -6 27 c-3 16 -13 74 -21 131 -29 195 -42 233 -100 279 l-35
28 0 810 0 810 275 115 c151 63 275 117 275 120 0 4 -2417 1021 -2460 1034 -8
3 -570 -228 -1247 -512z"/>
<path d="M1120 2082 c0 -576 -3 -553 81 -664 224 -300 826 -538 1359 -538 533
0 1134 238 1360 538 83 111 81 89 78 664 l-3 506 -615 -259 c-670 -283 -786
-329 -826 -329 -14 0 -333 129 -708 286 -374 157 -691 290 -703 295 l-23 9 0
-508z"/>
</g>
</svg>
